:SAMPLES-PER-SECOND 30
:FULLY-SPECIFIED
:DEGREES
976
root  -35.3907 38.4667 3.57548 -118.173 -84.002 110.778
RightUpLeg  -21.5291 3.85925 -13.8787
RightLeg  44.3542 3.82279 3.67652
RightFoot  -3.19026 -0.771247 10.4865
RightToes  -9.31324e-010 0 -3.6325e-017
Spine  16.2989 -0.909152 -4.62791
Spine1  0.499354 -2.67381 5.0909
HEad  -24.7694 4.62544 -4.98074
LeftShoulder1  -0.0549813 3.65839 -29.4542
LeftArm  8.63977 7.7945 -44.0525
LeftForeArm  31.2864 -48.9891 -10.5245
LeftHand  -0.0391941 4.46782 2.03664
RightShoulder  -0.402988 -4.90749 21.7548
RightArm  -12.9565 3.43466 19.9711
RightForeArm  179.789 54.4428 166.732
RightHand  -1.1861 12.9516 -7.91224
LeftUpLeg  -12.0333 4.34052 -9.6378
LeftLeg  27.9674 5.65735 3.61629
LeftFoot  -8.67856 -0.117154 7.28513
LeftToes  8.61288e-010 -5.99147e-011 2.1039e-011
977
root  -36.3647 38.3882 3.49423 -88.4156 -84.3882 81.882
RightUpLeg  -22.1612 5.34671 -15.3379
RightLeg  33.4693 4.88231 3.20768
RightFoot  -2.78018 -0.821563 10.6941
RightToes  -9.31324e-010 0 -3.6325e-017
Spine  15.9874 -1.46321 -5.60883
Spine1  0.464634 -3.70271 7.83731
HEad  -26.4659 3.83311 -5.79047
LeftShoulder1  -0.0470479 3.63419 -29.566
LeftArm  8.09751 8.15961 -44.1272
LeftForeArm  33.6573 -54.8979 -13.1789
LeftHand  -0.0618224 3.35908 2.62373
RightShoulder  -0.466796 -5.14925 21.4842
RightArm  -9.16884 1.89289 19.3448
RightForeArm  -176.573 52.1014 168.05
RightHand  -1.01514 13.6723 -6.58878
LeftUpLeg  -12.0476 1.49139 -10.0152
LeftLeg  29.5752 5.41075 3.68195
LeftFoot  -10.4183 0.00382118 7.2836
LeftToes  8.61288e-010 -5.99147e-011 2.1039e-011
978
root  -37.2817 38.2208 3.31045 -57.835 -82.6042 52.0622
RightUpLeg  -22.5003 7.7766 -17.8474
RightLeg  24.3259 6.51941 3.01361
RightFoot  -3.50335 -0.747617 10.5748
RightToes  -9.31324e-010 0 -3.6325e-017
Spine  16.3681 -1.95497 -7.32793
Spine1  -0.0330616 -4.86236 10.8971
HEad  -28.7603 1.89031 -6.44213
LeftShoulder1  -0.148611 3.91206 -30.3444
LeftArm  8.23879 8.76569 -43.2262
LeftForeArm  36.2643 -60.6677 -16.7182
LeftHand  -0.0649427 3.15506 2.58652
RightShoulder  -0.539695 -5.4142 21.3417
RightArm  -5.55063 0.680069 20.2616
RightForeArm  -174.211 50.4727 168.881
RightHand  -0.862689 13.5624 -5.70346
LeftUpLeg  -12.1838 -2.02189 -10.7099
LeftLeg  31.5213 5.18348 3.79156
LeftFoot  -12.1602 0.125022 7.224
LeftToes  8.61288e-010 -5.99147e-011 2.1039e-011
979
root  -38.1537 38.1001 3.02664 -41.7692 -79.2839 36.762
RightUpLeg  -22.8044 10.7557 -20.5528
RightLeg  18.5086 8.22802 2.8335
RightFoot  -2.65096 -0.925001 11.6733
RightToes  -9.31324e-010 0 -3.6325e-017
Spine  17.1392 -2.25838 -9.05531
Spine1  -0.442291 -5.83278 13.5087
HEad  -31.7056 -0.582433 -7.37842
LeftShoulder1  -0.177212 3.99187 -30.1212
LeftArm  7.30838 10.0895 -43.5506
LeftForeArm  40.5085 -65.2605 -20.4507
LeftHand  -0.0764461 2.58857 2.65815
RightShoulder  -0.731896 -6.03477 22.209
RightArm  -2.23423 1.89271 22.087
RightForeArm  -171.848 50.2788 169.115
RightHand  -0.867506 13.3848 -5.7833
LeftUpLeg  -12.0044 -4.9962 -11.3031
LeftLeg  32.6115 4.32726 3.34438
LeftFoot  -13.4836 0.217365 7.2686
LeftToes  8.61288e-010 -5.99147e-011 2.1039e-011
980
root  -39.0139 38.0978 2.65133 -31.9971 -75.4576 28.263
RightUpLeg  -22.6312 9.71023 -21.55
RightLeg  16.1252 11.2557 3.39901
RightFoot  0.202701 -1.48009 14.8479
RightToes  -9.31324e-010 0 -3.6325e-017
Spine  17.9831 -2.24379 -9.82163
Spine1  -1.81137 -6.07934 15.1981
HEad  -34.832 -4.09162 -7.40523
LeftShoulder1  -0.239913 4.15171 -30.9235
LeftArm  8.20939 10.661 -43.0395
LeftForeArm  43.2075 -67.3631 -22.6697
LeftHand  -0.0832598 2.3684 2.78469
RightShoulder  -0.69939 -5.92588 22.1433
RightArm  -0.657069 3.44601 23.4744
RightForeArm  -169.822 51.1097 168.926
RightHand  -0.94048 13.0144 -6.33913
LeftUpLeg  -11.9344 -7.02891 -11.2067
LeftLeg  32.6118 2.21031 1.9024
LeftFoot  -14.3272 0.276705 7.3047
LeftToes  8.61288e-010 -5.99147e-011 2.1039e-011
981
root  -39.8001 38.3144 2.29596 -24.8858 -71.5719 23.2018
RightUpLeg  -22.6455 4.88412 -20.9822
RightLeg  17.0643 13.8642 4.41751
RightFoot  3.3691 -1.49236 11.6377
RightToes  -9.31324e-010 0 -3.6325e-017
Spine  18.6796 -2.1728 -7.22797
Spine1  -3.87381 -5.16322 13.4135
HEad  -37.09 -9.59328 -6.39009
LeftShoulder1  -0.214548 4.08503 -30.807
LeftArm  10.0444 10.3268 -43.5825
LeftForeArm  44.6157 -66.9006 -21.9442
LeftHand  -0.0625057 2.92984 2.2671
RightShoulder  -0.63365 -5.70292 22.0748
RightArm  -1.39799 6.47235 23.0461
RightForeArm  -167.773 52.9734 168.31
RightHand  -1.0269 13.37 -6.76283
LeftUpLeg  -12.0128 -8.90925 -10.606
LeftLeg  30.7015 -0.111097 0.284782
LeftFoot  -14.0413 0.251509 7.0762
LeftToes  8.61288e-010 -5.99147e-011 2.1039e-011
982
root  -40.5418 38.6878 1.97976 -18.686 -67.4243 19.8659
RightUpLeg  -22.1087 0.140691 -20.6418
RightLeg  15.5225 13.4047 3.25108
RightFoot  3.63526 -1.62977 12.5414
RightToes  -9.31324e-010 0 -3.6325e-017
Spine  18.6029 -2.18253 -1.64248
Spine1  -6.10706 -3.37155 7.71652
HEad  -39.747 -16.5273 -4.69869
LeftShoulder1  -0.0248184 3.56851 -30.2081
LeftArm  12.5427 8.72991 -44.7359
LeftForeArm  44.3799 -63.8533 -18.5742
LeftHand  -0.0303851 3.11087 0.710555
RightShoulder  -0.431169 -5.10254 19.8584
RightArm  -4.78882 10.3104 19.1443
RightForeArm  -167.3 55.7367 167.159
RightHand  -1.03031 13.8203 -6.64712
LeftUpLeg  -12.316 -12.0139 -9.85152
LeftLeg  27.1168 -1.84857 -0.675469
LeftFoot  -12.5992 0.147465 6.51913
LeftToes  8.61288e-010 -5.99147e-011 2.1039e-011
